<?xml version="1.0" standalone="no"?>
<!DOCTYPE svg PUBLIC "-//W3C//DTD SVG 20010904//EN"
 "http://www.w3.org/TR/2001/REC-SVG-20010904/DTD/svg10.dtd">
<svg version="1.0" xmlns="http://www.w3.org/2000/svg"
 width="199.000000pt" height="193.000000pt" viewBox="0 0 199.000000 193.000000"
 preserveAspectRatio="xMidYMid meet">

<g transform="translate(0.000000,193.000000) scale(0.100000,-0.100000)"
fill="#000000" stroke="none">
<path d="M700 1697 c-36 -18 -67 -35 -70 -38 -16 -19 -51 -29 -69 -19 -17 8
-27 3 -63 -33 -24 -23 -52 -59 -63 -80 -11 -20 -23 -37 -27 -37 -5 0 -8 -8 -8
-19 0 -10 -16 -42 -35 -70 -19 -28 -35 -58 -35 -66 0 -17 -28 -77 -40 -85 -17
-12 -37 -68 -39 -109 -1 -25 -4 -48 -7 -53 -12 -19 -4 -166 11 -200 8 -20 17
-51 19 -70 6 -49 35 -127 59 -162 12 -17 23 -33 24 -35 2 -2 5 -2 8 1 4 3 -3
22 -14 41 -11 20 -23 53 -27 74 -4 21 -11 43 -16 50 -13 16 -11 137 2 179 13
37 4 66 -12 43 -10 -16 -8 7 16 141 20 107 37 156 83 239 61 110 227 257 356
315 20 9 37 19 37 21 0 11 -30 2 -90 -28z"/>
<path d="M905 1618 c-58 -33 -196 -181 -229 -246 -9 -18 -21 -30 -25 -27 -14
8 -22 -24 -36 -144 -14 -125 -7 -170 40 -276 26 -60 111 -171 156 -205 49 -36
43 -17 -12 35 -96 92 -135 183 -145 342 -8 116 6 175 68 295 38 74 121 172
183 216 32 23 32 28 0 10z"/>
<path d="M1238 1317 c-18 -7 -28 -18 -28 -31 0 -18 3 -17 32 10 18 16 35 30
37 32 11 6 -17 -1 -41 -11z"/>
<path d="M1368 1305 c2 -14 8 -28 13 -31 15 -9 10 33 -5 45 -11 9 -12 6 -8
-14z"/>
<path d="M411 1100 c0 -33 1 -34 11 -12 8 17 8 26 0 34 -9 9 -12 4 -11 -22z"/>
<path d="M1833 1019 c1 -63 -5 -141 -12 -174 -14 -68 -105 -272 -139 -313 -20
-24 -20 -20 6 33 36 73 65 161 60 177 -2 6 -15 -21 -28 -61 -25 -77 -97 -198
-146 -242 -36 -33 -165 -119 -221 -148 -52 -26 -155 -51 -208 -50 -37 1 -35 2
28 19 87 23 123 37 172 70 22 14 53 32 69 40 95 48 238 247 280 389 20 67 21
113 2 61 -8 -20 -25 -59 -40 -88 -14 -29 -24 -52 -21 -52 9 0 -26 -62 -65
-115 -77 -104 -179 -175 -296 -206 -148 -39 -214 -47 -310 -38 -152 14 -265
70 -397 198 -106 102 -160 193 -203 346 -25 86 -29 50 -6 -42 22 -85 44 -137
96 -228 10 -16 24 -47 33 -67 9 -21 21 -38 28 -38 12 0 55 -41 55 -53 0 -4
-12 -7 -27 -7 l-27 0 30 -31 c36 -38 148 -111 152 -99 4 10 39 0 102 -28 63
-29 195 -61 258 -64 28 -1 52 -7 52 -12 0 -13 103 0 142 18 18 8 62 25 98 37
120 40 288 185 390 336 30 44 59 80 64 79 5 0 13 10 17 24 4 14 13 45 20 70
17 57 19 327 3 354 -9 14 -11 -8 -11 -95z m-1215 -617 c2 -7 -3 -12 -12 -12
-9 0 -16 7 -16 16 0 17 22 14 28 -4z m271 -138 c10 -9 -35 -3 -49 6 -11 8 -7
9 15 4 17 -4 32 -8 34 -10z m111 -14 c12 -7 8 -10 -15 -10 -16 0 -37 5 -45 10
-12 7 -8 10 15 10 17 0 37 -5 45 -10z"/>
<path d="M471 1038 c-1 -52 -4 -68 -16 -68 -18 0 -35 30 -36 67 -1 23 -3 21
-10 -12 -13 -65 -12 -80 6 -65 22 18 34 1 109 -160 24 -53 90 -129 101 -118 3
3 -12 28 -35 56 -78 99 -98 151 -109 280 l-8 87 -2 -67z"/>
<path d="M1272 1049 c-13 -16 -20 -29 -15 -29 9 1 47 50 41 54 -1 2 -13 -10
-26 -25z"/>
<path d="M1090 1030 c-6 -11 -7 -20 -2 -20 6 0 12 9 15 20 3 11 3 20 1 20 -2
0 -8 -9 -14 -20z"/>
<path d="M1075 990 c-3 -5 -1 -10 4 -10 6 0 11 5 11 10 0 6 -2 10 -4 10 -3 0
-8 -4 -11 -10z"/>
<path d="M1711 874 c0 -11 3 -14 6 -6 3 7 2 16 -1 19 -3 4 -6 -2 -5 -13z"/>
<path d="M220 785 c0 -5 5 -17 10 -25 5 -8 10 -10 10 -5 0 6 -5 17 -10 25 -5
8 -10 11 -10 5z"/>
<path d="M691 720 c8 -14 22 -30 31 -37 33 -25 98 -98 98 -110 0 -7 18 -17 40
-23 21 -6 43 -17 47 -24 10 -17 106 -36 182 -36 66 0 63 8 -6 15 -95 9 -248
94 -362 199 -33 31 -40 35 -30 16z"/>
<path d="M271 628 c22 -57 37 -109 34 -116 -3 -8 7 -26 23 -41 15 -15 44 -49
65 -74 59 -72 209 -161 293 -173 l39 -6 -50 24 c-27 14 -69 33 -92 43 -43 18
-173 136 -210 190 -30 43 -123 227 -123 242 0 7 -4 13 -9 13 -5 0 9 -46 30
-102z"/>
<path d="M540 663 c0 -6 22 -37 49 -68 28 -31 51 -66 53 -78 2 -14 14 -24 36
-29 17 -5 32 -12 32 -17 0 -11 46 -29 93 -36 20 -3 53 -8 73 -11 24 -3 34 -2
29 5 -3 6 -16 11 -28 11 -12 0 -36 8 -54 18 -17 9 -51 28 -74 41 -42 23 -172
130 -196 160 -8 10 -12 11 -13 4z"/>
<path d="M1511 589 c-13 -17 -35 -36 -49 -42 -15 -7 -39 -20 -54 -31 -15 -10
-66 -32 -113 -50 l-85 -32 75 1 c54 1 80 6 93 18 10 9 24 17 30 17 6 0 26 13
44 29 38 33 104 121 91 121 -5 0 -20 -14 -32 -31z"/>
<path d="M1168 423 c7 -3 16 -2 19 1 4 3 -2 6 -13 5 -11 0 -14 -3 -6 -6z"/>
</g>
</svg>
