<?xml version="1.0" encoding="UTF-8"?>
<svg xmlns="http://www.w3.org/2000/svg" xmlns:xlink="http://www.w3.org/1999/xlink" width="24px" height="24px" viewBox="0 0 24 24" version="1.1">
<g id="surface1">
<path style=" stroke:none;fill-rule:nonzero;fill:rgb(0%,0%,0%);fill-opacity:1;" d="M 13.265625 2.972656 C 11.125 3.351562 9.3125 4.546875 8.148438 6.355469 C 7.925781 6.699219 7.5625 7.46875 7.410156 7.90625 C 7.101562 8.8125 6.976562 9.792969 7.039062 10.835938 C 7.171875 13.09375 8.40625 15.210938 10.316406 16.492188 C 11.410156 17.222656 12.777344 17.675781 14.0625 17.734375 L 14.320312 17.742188 L 14.335938 19.308594 L 14.34375 20.875 L 17.09375 18.136719 C 20.109375 15.140625 20.226562 15.015625 20.601562 14.453125 C 21.429688 13.210938 21.847656 11.839844 21.847656 10.335938 C 21.847656 9.070312 21.617188 8.082031 21.070312 6.984375 C 20.058594 4.964844 18.21875 3.542969 15.976562 3.042969 C 15.417969 2.914062 13.820312 2.875 13.265625 2.972656 Z M 13.265625 2.972656 "/>
<path style=" stroke:none;fill-rule:nonzero;fill:rgb(0%,0%,0%);fill-opacity:1;" d="M 6.351562 7.453125 C 5.300781 7.691406 4.425781 8.1875 3.660156 8.976562 C 2.769531 9.898438 2.269531 10.984375 2.164062 12.21875 C 1.953125 14.714844 3.46875 17.019531 5.839844 17.808594 C 6.070312 17.882812 6.355469 17.960938 6.484375 17.976562 L 6.703125 18.007812 L 6.703125 21.117188 L 10.402344 17.417969 L 10.0625 17.203125 C 9.875 17.082031 9.601562 16.882812 9.445312 16.761719 L 9.167969 16.542969 L 8.203125 17.507812 L 8.203125 16.609375 L 7.5625 16.578125 C 6.378906 16.527344 5.605469 16.222656 4.832031 15.496094 C 3.777344 14.503906 3.378906 12.914062 3.828125 11.507812 C 4.164062 10.453125 5.035156 9.511719 6.042969 9.117188 L 6.359375 8.992188 L 6.445312 8.609375 C 6.511719 8.289062 6.695312 7.660156 6.78125 7.421875 C 6.8125 7.34375 6.820312 7.34375 6.351562 7.453125 Z M 6.351562 7.453125 "/>
</g>
</svg>
