<?xml version="1.0" encoding="UTF-8"?>
<svg xmlns="http://www.w3.org/2000/svg" xmlns:xlink="http://www.w3.org/1999/xlink" width="54px" height="54px" viewBox="0 0 54 54" version="1.1">
<g id="surface1">
<path style=" stroke:none;fill-rule:nonzero;fill:rgb(12.54902%,94.117647%,100%);fill-opacity:1;" d="M 29.855469 6.648438 C 25.039062 7.5 20.960938 10.191406 18.34375 14.261719 C 17.84375 15.035156 17.023438 16.765625 16.683594 17.75 C 15.988281 19.789062 15.707031 21.996094 15.847656 24.339844 C 16.144531 29.421875 18.921875 34.183594 23.222656 37.066406 C 25.683594 38.710938 28.757812 39.730469 31.648438 39.863281 L 32.230469 39.878906 L 32.265625 43.40625 L 32.28125 46.929688 L 38.46875 40.769531 C 45.253906 34.027344 45.519531 33.746094 46.363281 32.480469 C 48.226562 29.683594 49.167969 26.601562 49.167969 23.214844 C 49.167969 20.367188 48.648438 18.144531 47.417969 15.675781 C 45.140625 11.132812 41 7.933594 35.957031 6.808594 C 34.699219 6.515625 31.105469 6.429688 29.855469 6.648438 Z M 29.855469 6.648438 "/>
<path style=" stroke:none;fill-rule:nonzero;fill:rgb(12.54902%,94.117647%,100%);fill-opacity:1;" d="M 14.300781 16.730469 C 11.9375 17.265625 9.96875 18.382812 8.242188 20.15625 C 6.238281 22.230469 5.113281 24.675781 4.878906 27.453125 C 4.402344 33.070312 7.8125 38.253906 13.148438 40.03125 C 13.667969 40.195312 14.308594 40.371094 14.597656 40.40625 L 15.089844 40.476562 L 15.089844 47.472656 L 23.414062 39.152344 L 22.648438 38.667969 C 22.226562 38.394531 21.613281 37.945312 21.261719 37.675781 L 20.636719 37.183594 L 18.464844 39.351562 L 18.464844 37.332031 L 17.023438 37.261719 C 14.363281 37.148438 12.621094 36.460938 10.882812 34.828125 C 8.507812 32.59375 7.613281 29.015625 8.621094 25.851562 C 9.378906 23.480469 11.339844 21.363281 13.605469 20.472656 L 14.316406 20.191406 L 14.511719 19.332031 C 14.660156 18.609375 15.074219 17.195312 15.265625 16.660156 C 15.335938 16.484375 15.355469 16.484375 14.300781 16.730469 Z M 14.300781 16.730469 "/>
</g>
</svg>
