<?xml version="1.0" encoding="UTF-8"?>
<svg xmlns="http://www.w3.org/2000/svg" xmlns:xlink="http://www.w3.org/1999/xlink" width="24px" height="24px" viewBox="0 0 24 24" version="1.1">
<g id="surface1">
<path style=" stroke:none;fill-rule:nonzero;fill:rgb(0%,0%,0%);fill-opacity:1;" d="M 11.367188 3.050781 C 9.867188 3.332031 8.6875 4.414062 8.265625 5.90625 C 8.1875 6.179688 8.179688 6.40625 8.179688 8.140625 C 8.179688 10.015625 8.183594 10.074219 8.277344 10.199219 C 8.457031 10.445312 8.609375 10.523438 8.898438 10.523438 C 9.226562 10.523438 9.4375 10.390625 9.566406 10.105469 C 9.648438 9.933594 9.65625 9.773438 9.65625 8.25 C 9.65625 6.917969 9.671875 6.53125 9.726562 6.308594 C 9.976562 5.359375 10.738281 4.667969 11.695312 4.53125 C 12.914062 4.355469 14.113281 5.210938 14.34375 6.417969 C 14.367188 6.558594 14.390625 7.398438 14.390625 8.304688 C 14.390625 10.132812 14.394531 10.15625 14.710938 10.398438 C 14.84375 10.5 14.925781 10.523438 15.144531 10.523438 C 15.4375 10.523438 15.585938 10.445312 15.769531 10.199219 C 15.863281 10.078125 15.867188 10.003906 15.882812 8.328125 C 15.894531 6.476562 15.875 6.234375 15.675781 5.625 C 15.328125 4.566406 14.386719 3.601562 13.332031 3.230469 C 12.75 3.023438 11.929688 2.949219 11.367188 3.050781 Z M 11.367188 3.050781 "/>
<path style=" stroke:none;fill-rule:nonzero;fill:rgb(0%,0%,0%);fill-opacity:1;" d="M 3.171875 8.945312 C 3.125 8.992188 3.09375 9.078125 3.09375 9.136719 C 3.09375 9.195312 3.683594 11.652344 4.40625 14.59375 C 5.320312 18.335938 5.75 20.019531 5.839844 20.195312 C 5.984375 20.476562 6.183594 20.667969 6.53125 20.851562 L 6.773438 20.976562 L 11.90625 20.992188 C 17.628906 21.003906 17.292969 21.019531 17.746094 20.675781 C 18.195312 20.339844 18.121094 20.585938 19.578125 14.65625 C 20.304688 11.6875 20.90625 9.203125 20.90625 9.132812 C 20.90625 8.859375 20.898438 8.859375 18.675781 8.859375 L 16.648438 8.859375 L 16.632812 9.523438 C 16.617188 10.121094 16.601562 10.21875 16.503906 10.429688 C 16.355469 10.726562 16.070312 11.011719 15.773438 11.15625 C 15.582031 11.25 15.464844 11.269531 15.140625 11.269531 C 14.796875 11.269531 14.710938 11.25 14.5 11.140625 C 14.175781 10.972656 13.9375 10.730469 13.785156 10.410156 C 13.679688 10.175781 13.664062 10.082031 13.648438 9.5 L 13.632812 8.859375 L 10.414062 8.859375 L 10.398438 9.5 C 10.382812 10.082031 10.367188 10.175781 10.261719 10.410156 C 10.105469 10.742188 9.851562 10.992188 9.519531 11.152344 C 9.15625 11.320312 8.617188 11.324219 8.273438 11.15625 C 7.972656 11.011719 7.691406 10.726562 7.542969 10.429688 C 7.445312 10.21875 7.429688 10.121094 7.414062 9.523438 L 7.398438 8.859375 L 5.324219 8.859375 C 3.375 8.859375 3.242188 8.863281 3.171875 8.945312 Z M 3.171875 8.945312 "/>
</g>
</svg>
