<?xml version="1.0" encoding="UTF-8"?>
<svg xmlns="http://www.w3.org/2000/svg" xmlns:xlink="http://www.w3.org/1999/xlink" width="54px" height="54px" viewBox="0 0 54 54" version="1.1">
<g id="surface1">
<path style=" stroke:none;fill-rule:nonzero;fill:rgb(12.54902%,94.117647%,100%);fill-opacity:1;" d="M 25.578125 6.863281 C 22.203125 7.496094 19.546875 9.929688 18.597656 13.285156 C 18.421875 13.902344 18.40625 14.410156 18.40625 18.3125 C 18.40625 22.53125 18.414062 22.664062 18.625 22.945312 C 19.027344 23.5 19.371094 23.675781 20.023438 23.675781 C 20.761719 23.675781 21.234375 23.375 21.523438 22.734375 C 21.710938 22.347656 21.726562 21.988281 21.726562 18.558594 C 21.726562 15.5625 21.761719 14.691406 21.886719 14.191406 C 22.449219 12.054688 24.160156 10.5 26.316406 10.191406 C 29.058594 9.796875 31.753906 11.722656 32.273438 14.4375 C 32.328125 14.753906 32.378906 16.644531 32.378906 18.683594 C 32.378906 22.796875 32.386719 22.847656 33.101562 23.394531 C 33.398438 23.621094 33.582031 23.675781 34.074219 23.675781 C 34.734375 23.675781 35.070312 23.5 35.480469 22.945312 C 35.691406 22.671875 35.703125 22.507812 35.738281 18.734375 C 35.761719 14.570312 35.71875 14.023438 35.269531 12.652344 C 34.488281 10.273438 32.371094 8.101562 29.996094 7.265625 C 28.6875 6.800781 26.84375 6.632812 25.578125 6.863281 Z M 25.578125 6.863281 "/>
<path style=" stroke:none;fill-rule:nonzero;fill:rgb(12.54902%,94.117647%,100%);fill-opacity:1;" d="M 7.136719 20.125 C 7.03125 20.230469 6.960938 20.421875 6.960938 20.554688 C 6.960938 20.6875 8.289062 26.214844 9.914062 32.832031 C 11.972656 41.253906 12.9375 45.042969 13.140625 45.4375 C 13.464844 46.070312 13.914062 46.5 14.695312 46.914062 L 15.242188 47.195312 L 26.789062 47.230469 C 39.664062 47.257812 38.910156 47.292969 39.929688 46.519531 C 40.941406 45.761719 40.773438 46.316406 44.050781 32.972656 C 45.6875 26.292969 47.039062 20.703125 47.039062 20.546875 C 47.039062 19.929688 47.023438 19.929688 42.019531 19.929688 L 37.460938 19.929688 L 37.425781 21.425781 C 37.390625 22.769531 37.355469 22.988281 37.132812 23.464844 C 36.800781 24.132812 36.160156 24.773438 35.492188 25.097656 C 35.058594 25.308594 34.796875 25.355469 34.066406 25.355469 C 33.292969 25.355469 33.101562 25.308594 32.625 25.0625 C 31.894531 24.6875 31.359375 24.140625 31.015625 23.421875 C 30.78125 22.894531 30.746094 22.683594 30.710938 21.371094 L 30.675781 19.929688 L 23.433594 19.929688 L 23.398438 21.371094 C 23.363281 22.683594 23.328125 22.894531 23.089844 23.421875 C 22.738281 24.167969 22.167969 24.730469 21.417969 25.089844 C 20.601562 25.46875 19.390625 25.476562 18.617188 25.097656 C 17.9375 24.773438 17.304688 24.132812 16.972656 23.464844 C 16.753906 22.988281 16.71875 22.769531 16.683594 21.425781 L 16.648438 19.929688 L 11.980469 19.929688 C 7.59375 19.929688 7.296875 19.941406 7.136719 20.125 Z M 7.136719 20.125 "/>
</g>
</svg>
