<?xml version="1.0" encoding="UTF-8"?>
<svg xmlns="http://www.w3.org/2000/svg" xmlns:xlink="http://www.w3.org/1999/xlink" width="54px" height="54px" viewBox="0 0 54 54" version="1.1">
<g id="surface1">
<path style=" stroke:none;fill-rule:nonzero;fill:rgb(0%,77.647059%,100%);fill-opacity:1;" d="M 26.230469 5.589844 C 25.945312 5.640625 25.46875 5.800781 25.175781 5.949219 C 24.847656 6.117188 19.691406 10.335938 12.390625 16.433594 C -0.496094 27.179688 -0.136719 26.851562 0.03125 27.546875 C 0.0742188 27.6875 0.644531 28.445312 1.320312 29.234375 C 2.332031 30.4375 2.59375 30.691406 2.890625 30.753906 C 3.089844 30.785156 3.355469 30.785156 3.46875 30.742188 C 3.585938 30.710938 8.921875 26.3125 15.3125 20.988281 C 21.714844 15.652344 26.96875 11.285156 27 11.285156 C 27.03125 11.285156 32.285156 15.652344 38.6875 20.988281 C 45.078125 26.3125 50.414062 30.710938 50.53125 30.742188 C 50.644531 30.785156 50.910156 30.785156 51.109375 30.753906 C 51.40625 30.691406 51.667969 30.4375 52.679688 29.234375 C 53.355469 28.445312 53.925781 27.6875 53.96875 27.546875 C 54.125 26.894531 54 26.769531 50.097656 23.519531 L 46.351562 20.398438 L 46.300781 13.308594 L 46.25 6.222656 L 45.953125 5.9375 L 45.667969 5.640625 L 42.261719 5.609375 C 40.046875 5.589844 38.726562 5.609375 38.484375 5.683594 C 37.769531 5.894531 37.769531 5.917969 37.738281 9.757812 L 37.703125 13.203125 L 33.402344 9.617188 C 28.792969 5.769531 28.65625 5.675781 27.371094 5.558594 C 27.019531 5.527344 26.503906 5.539062 26.230469 5.589844 Z M 26.230469 5.589844 "/>
<path style=" stroke:none;fill-rule:nonzero;fill:rgb(0%,77.647059%,100%);fill-opacity:1;" d="M 17.316406 22.167969 L 7.699219 30.101562 L 7.699219 38.328125 C 7.699219 43.992188 7.742188 46.703125 7.816406 46.984375 C 7.972656 47.566406 8.691406 48.242188 9.3125 48.390625 C 9.648438 48.484375 11.71875 48.515625 16.230469 48.515625 L 22.675781 48.515625 L 22.675781 35.648438 L 31.324219 35.648438 L 31.324219 48.515625 L 37.769531 48.515625 C 42.0625 48.515625 44.359375 48.472656 44.65625 48.398438 C 45.246094 48.25 45.859375 47.746094 46.101562 47.207031 C 46.289062 46.796875 46.300781 46.320312 46.300781 38.433594 L 46.300781 30.101562 L 36.714844 22.199219 C 31.449219 17.855469 27.09375 14.289062 27.042969 14.269531 C 26.988281 14.25 22.613281 17.804688 17.316406 22.167969 Z M 17.316406 22.167969 "/>
</g>
</svg>
