<?xml version="1.0" standalone="no"?>
<!DOCTYPE svg PUBLIC "-//W3C//DTD SVG 1.0//EN" "http://www.w3.org/TR/2001/REC-SVG-20010904/DTD/svg10.dtd">
<svg xmlns="http://www.w3.org/2000/svg" xmlns:xlink="http://www.w3.org/1999/xlink" id="body_1" width="54" height="54">

<g transform="matrix(0.10546875 0 0 0.10546875 0 0)">
	<g transform="matrix(0.1 0 -0 -0.1 0 512)">
        <path d="M2487 4590C 2460 4585 2415 4570 2387 4556C 2356 4540 1867 4140 1175 3562C -47 2543 -13 2574 3 2508C 7 2495 61 2423 125 2348C 221 2234 246 2210 274 2204C 293 2201 318 2201 329 2205C 340 2208 846 2625 1452 3130C 2059 3636 2557 4050 2560 4050C 2563 4050 3061 3636 3668 3130C 4274 2625 4780 2208 4791 2205C 4802 2201 4827 2201 4846 2204C 4874 2210 4899 2234 4995 2348C 5059 2423 5113 2495 5117 2508C 5132 2570 5120 2582 4750 2890L4750 2890L4395 3186L4390 3858L4385 4530L4357 4557L4330 4585L4007 4588C 3797 4590 3672 4588 3649 4581C 3581 4561 3581 4559 3578 4195L3578 4195L3575 3868L3167 4208C 2730 4573 2717 4582 2595 4593C 2562 4596 2513 4595 2487 4590z" stroke="none" fill="#000000" fill-rule="nonzero" />
        <path d="M1642 3018L730 2266L730 1486C 730 949 734 692 741 665C 756 610 824 546 883 532C 915 523 1111 520 1539 520L1539 520L2150 520L2150 1130L2150 1740L2560 1740L2970 1740L2970 1130L2970 520L3581 520C 3988 520 4206 524 4234 531C 4290 545 4348 593 4371 644C 4389 683 4390 728 4390 1476L4390 1476L4390 2266L3481 3015C 2982 3427 2569 3765 2564 3767C 2559 3769 2144 3432 1642 3018z" stroke="none" fill="#000000" fill-rule="nonzero" />
	</g>
</g>
</svg>