<?xml version="1.0" encoding="UTF-8"?>
<svg xmlns="http://www.w3.org/2000/svg" xmlns:xlink="http://www.w3.org/1999/xlink" width="24px" height="24px" viewBox="0 0 24 24" version="1.1">
<g id="surface1">
<path style=" stroke:none;fill-rule:nonzero;fill:rgb(0%,0%,0%);fill-opacity:1;" d="M 8.660156 0.230469 C 6.980469 0.804688 5.785156 1.855469 5.394531 3.160156 C 5.269531 3.535156 4.855469 4.285156 4.464844 4.820312 C 2.769531 7.179688 2.570312 8.105469 3.304688 10.910156 C 3.785156 12.820312 4.304688 13.929688 5 14.554688 C 5.695312 15.179688 5.730469 15.570312 5.25 16.964844 C 5 17.660156 4.820312 18.5 4.855469 18.804688 C 4.910156 19.285156 4.804688 19.464844 4.214844 19.910156 C 3.375 20.554688 2.910156 21.160156 2.75 21.839844 C 2.644531 22.304688 2.679688 22.339844 3.054688 22.285156 C 3.339844 22.25 3.5 22.089844 3.535156 21.839844 C 3.570312 21.625 3.929688 21.160156 4.320312 20.785156 L 5.054688 20.144531 L 5.285156 20.714844 C 5.980469 22.339844 7.714844 23.570312 9.304688 23.570312 C 10.125 23.570312 10.144531 23.570312 10.519531 22.679688 L 10.910156 21.785156 L 13.535156 21.785156 C 16.660156 21.785156 17.394531 21.625 17.855469 20.839844 C 18.054688 20.519531 18.230469 20.195312 18.269531 20.105469 C 18.339844 19.894531 19.285156 20.410156 19.769531 20.929688 C 19.980469 21.144531 20.230469 21.554688 20.339844 21.820312 C 20.519531 22.285156 20.875 22.464844 21.105469 22.214844 C 21.320312 22 20.875 20.980469 20.320312 20.394531 C 19.980469 20.054688 18.875 19.375 17.769531 18.839844 C 16.695312 18.320312 15.660156 17.785156 15.464844 17.644531 C 15.160156 17.394531 15.195312 17.355469 16.105469 16.980469 C 17.535156 16.410156 18.804688 15.214844 19.5 13.785156 C 20.089844 12.605469 20.089844 12.570312 20.105469 10 C 20.105469 6.695312 19.929688 5.394531 19.285156 4.125 C 18.179688 1.910156 16.980469 1.054688 14.839844 0.945312 C 14.054688 0.894531 13.125 0.714844 12.625 0.519531 C 11.519531 0.0546875 9.605469 -0.0703125 8.660156 0.230469 Z M 12.464844 1.285156 C 13.035156 1.5 13.785156 1.644531 14.160156 1.625 C 16.105469 1.5 17.644531 2.464844 18.605469 4.429688 C 19.160156 5.554688 19.195312 5.75 19.269531 7.945312 C 19.320312 9.214844 19.355469 10.75 19.339844 11.339844 C 19.320312 13.339844 18.160156 15.089844 16.214844 16.070312 C 14.894531 16.730469 14.519531 16.75 14.25 16.160156 C 14.054688 15.730469 14.105469 15.644531 14.945312 14.910156 C 15.945312 14.035156 16.625 13 16.964844 11.839844 C 17.089844 11.410156 17.394531 10.945312 17.679688 10.730469 C 18.75 9.945312 18.75 8.269531 17.660156 7.464844 C 17.355469 7.230469 17.105469 6.839844 17.035156 6.5 C 16.945312 5.964844 16.820312 5.875 15.980469 5.625 C 14.894531 5.320312 13.695312 4.25 13.394531 3.285156 C 13.285156 2.945312 13.125 2.679688 13.070312 2.679688 C 13 2.679688 12.75 2.964844 12.519531 3.304688 C 11.605469 4.644531 9.519531 5.839844 7.769531 6.019531 C 6.839844 6.105469 6.785156 6.144531 6.785156 6.605469 C 6.785156 6.910156 6.605469 7.195312 6.269531 7.464844 C 5.179688 8.269531 5.179688 9.945312 6.269531 10.75 C 6.554688 10.964844 6.785156 11.25 6.785156 11.394531 C 6.785156 12.105469 7.929688 13.964844 8.875 14.804688 L 9.894531 15.714844 L 9.589844 16.339844 C 9.304688 16.929688 9.304688 17 9.660156 17.910156 C 10.160156 19.144531 10.285156 21.125 9.945312 22.054688 C 9.695312 22.730469 9.660156 22.769531 8.945312 22.75 C 7.945312 22.730469 6.875 21.964844 6.214844 20.769531 C 5.535156 19.554688 5.480469 18.339844 6.054688 16.910156 C 6.570312 15.660156 6.464844 14.910156 5.695312 14.179688 C 5.394531 13.894531 5 13.410156 4.820312 13.125 C 4.519531 12.605469 3.910156 10.589844 3.679688 9.269531 C 3.5 8.25 3.875 6.910156 4.605469 5.945312 C 4.964844 5.480469 5.589844 4.464844 5.980469 3.679688 C 6.804688 2.054688 7.589844 1.320312 8.875 0.964844 C 9.910156 0.679688 11.125 0.785156 12.464844 1.285156 Z M 14.519531 5.769531 C 14.929688 6.054688 15.480469 6.320312 15.769531 6.375 C 16.160156 6.464844 16.285156 6.605469 16.445312 7.25 C 16.589844 7.785156 16.75 8.035156 16.945312 8.035156 C 17.429688 8.035156 17.679688 8.410156 17.679688 9.105469 C 17.679688 9.804688 17.429688 10.179688 16.945312 10.179688 C 16.75 10.179688 16.605469 10.375 16.535156 10.785156 C 16.339844 11.839844 15.375 13.535156 14.554688 14.25 C 13.230469 15.410156 11.929688 15.625 10.445312 14.929688 C 9.035156 14.285156 7.945312 12.839844 7.480469 11 C 7.339844 10.429688 7.179688 10.179688 6.980469 10.179688 C 6.5 10.179688 6.25 9.804688 6.25 9.105469 C 6.25 8.410156 6.5 8.035156 7 8.035156 C 7.195312 8.035156 7.339844 7.839844 7.410156 7.445312 C 7.519531 6.894531 7.589844 6.839844 8.480469 6.660156 C 9.730469 6.394531 11.179688 5.679688 12.160156 4.820312 L 12.945312 4.160156 L 13.355469 4.714844 C 13.570312 5.019531 14.105469 5.480469 14.519531 5.769531 Z M 13.480469 16.394531 C 13.660156 17.144531 14.855469 18.230469 16.285156 18.945312 L 17.679688 19.644531 L 17.429688 20.160156 C 17.269531 20.445312 17.019531 20.714844 16.875 20.785156 C 16.714844 20.839844 15.304688 20.894531 13.730469 20.894531 L 10.894531 20.894531 L 10.894531 20.105469 C 10.894531 19.679688 10.730469 18.804688 10.535156 18.160156 C 10.269531 17.285156 10.214844 16.894531 10.355469 16.5 C 10.535156 15.980469 10.554688 15.980469 11.964844 15.980469 C 13.285156 15.980469 13.375 16 13.480469 16.394531 Z M 13.480469 16.394531 "/>
</g>
</svg>
