<?xml version="1.0" encoding="UTF-8"?>
<svg xmlns="http://www.w3.org/2000/svg" xmlns:xlink="http://www.w3.org/1999/xlink" width="24px" height="24px" viewBox="0 0 24 24" version="1.1">
<g id="surface1">
<path style=" stroke:none;fill-rule:nonzero;fill:rgb(0%,87.843137%,100%);fill-opacity:1;" d="M 8.6875 0.234375 C 7.003906 0.804688 5.804688 1.863281 5.410156 3.171875 C 5.285156 3.546875 4.871094 4.296875 4.476562 4.835938 C 2.777344 7.199219 2.578125 8.132812 3.3125 10.941406 C 3.796875 12.859375 4.316406 13.96875 5.015625 14.597656 C 5.714844 15.222656 5.75 15.617188 5.265625 17.015625 C 5.015625 17.714844 4.835938 18.554688 4.871094 18.859375 C 4.925781 19.34375 4.816406 19.523438 4.226562 19.96875 C 3.386719 20.613281 2.917969 21.222656 2.757812 21.90625 C 2.652344 22.371094 2.6875 22.40625 3.0625 22.351562 C 3.347656 22.316406 3.511719 22.15625 3.546875 21.90625 C 3.582031 21.691406 3.941406 21.222656 4.335938 20.847656 L 5.070312 20.203125 L 5.300781 20.777344 C 6 22.40625 7.738281 23.640625 9.332031 23.640625 C 10.15625 23.640625 10.171875 23.640625 10.550781 22.746094 L 10.941406 21.851562 L 13.574219 21.851562 C 16.710938 21.851562 17.445312 21.691406 17.910156 20.902344 C 18.109375 20.578125 18.285156 20.257812 18.324219 20.167969 C 18.394531 19.953125 19.34375 20.472656 19.828125 20.992188 C 20.042969 21.207031 20.292969 21.617188 20.398438 21.886719 C 20.578125 22.351562 20.9375 22.53125 21.171875 22.28125 C 21.386719 22.066406 20.9375 21.042969 20.382812 20.453125 C 20.042969 20.113281 18.929688 19.433594 17.820312 18.894531 C 16.746094 18.375 15.707031 17.839844 15.511719 17.695312 C 15.207031 17.445312 15.242188 17.410156 16.15625 17.03125 C 17.589844 16.460938 18.859375 15.257812 19.558594 13.828125 C 20.148438 12.644531 20.148438 12.609375 20.167969 10.03125 C 20.167969 6.714844 19.988281 5.410156 19.34375 4.136719 C 18.234375 1.917969 17.03125 1.058594 14.882812 0.949219 C 14.09375 0.894531 13.164062 0.714844 12.664062 0.519531 C 11.550781 0.0546875 9.636719 -0.0703125 8.6875 0.234375 Z M 12.5 1.289062 C 13.074219 1.503906 13.828125 1.648438 14.203125 1.628906 C 16.15625 1.503906 17.695312 2.472656 18.664062 4.441406 C 19.21875 5.570312 19.253906 5.765625 19.324219 7.96875 C 19.378906 9.242188 19.414062 10.78125 19.398438 11.375 C 19.378906 13.378906 18.214844 15.132812 16.261719 16.121094 C 14.9375 16.78125 14.5625 16.800781 14.292969 16.207031 C 14.09375 15.777344 14.148438 15.691406 14.992188 14.957031 C 15.992188 14.078125 16.675781 13.039062 17.015625 11.875 C 17.140625 11.445312 17.445312 10.980469 17.730469 10.765625 C 18.804688 9.976562 18.804688 8.292969 17.714844 7.488281 C 17.410156 7.253906 17.160156 6.859375 17.085938 6.519531 C 16.996094 5.980469 16.871094 5.890625 16.03125 5.640625 C 14.9375 5.335938 13.738281 4.261719 13.433594 3.296875 C 13.324219 2.957031 13.164062 2.6875 13.109375 2.6875 C 13.039062 2.6875 12.789062 2.972656 12.554688 3.3125 C 11.640625 4.65625 9.546875 5.855469 7.792969 6.035156 C 6.859375 6.125 6.804688 6.160156 6.804688 6.625 C 6.804688 6.929688 6.625 7.21875 6.285156 7.488281 C 5.195312 8.292969 5.195312 9.976562 6.285156 10.78125 C 6.574219 10.996094 6.804688 11.285156 6.804688 11.425781 C 6.804688 12.144531 7.953125 14.007812 8.902344 14.847656 L 9.921875 15.761719 L 9.617188 16.386719 C 9.332031 16.980469 9.332031 17.050781 9.691406 17.964844 C 10.191406 19.199219 10.316406 21.1875 9.976562 22.121094 C 9.726562 22.800781 9.691406 22.835938 8.972656 22.816406 C 7.96875 22.800781 6.894531 22.03125 6.234375 20.828125 C 5.550781 19.613281 5.5 18.394531 6.070312 16.960938 C 6.589844 15.707031 6.484375 14.957031 5.714844 14.222656 C 5.410156 13.933594 5.015625 13.449219 4.835938 13.164062 C 4.53125 12.644531 3.921875 10.621094 3.691406 9.296875 C 3.511719 8.273438 3.886719 6.929688 4.621094 5.964844 C 4.980469 5.5 5.605469 4.476562 6 3.691406 C 6.824219 2.058594 7.613281 1.324219 8.902344 0.96875 C 9.941406 0.679688 11.160156 0.789062 12.5 1.289062 Z M 14.5625 5.785156 C 14.972656 6.070312 15.527344 6.339844 15.816406 6.394531 C 16.207031 6.484375 16.335938 6.625 16.496094 7.273438 C 16.640625 7.808594 16.800781 8.058594 16.996094 8.058594 C 17.480469 8.058594 17.730469 8.4375 17.730469 9.132812 C 17.730469 9.832031 17.480469 10.207031 16.996094 10.207031 C 16.800781 10.207031 16.65625 10.40625 16.585938 10.816406 C 16.386719 11.875 15.421875 13.574219 14.597656 14.292969 C 13.273438 15.457031 11.964844 15.671875 10.476562 14.972656 C 9.0625 14.328125 7.96875 12.878906 7.503906 11.03125 C 7.359375 10.460938 7.199219 10.207031 7.003906 10.207031 C 6.519531 10.207031 6.269531 9.832031 6.269531 9.132812 C 6.269531 8.4375 6.519531 8.058594 7.019531 8.058594 C 7.21875 8.058594 7.359375 7.863281 7.433594 7.46875 C 7.539062 6.914062 7.613281 6.859375 8.507812 6.679688 C 9.761719 6.410156 11.210938 5.695312 12.195312 4.835938 L 12.984375 4.171875 L 13.398438 4.726562 C 13.613281 5.03125 14.148438 5.5 14.5625 5.785156 Z M 13.523438 16.441406 C 13.703125 17.195312 14.902344 18.285156 16.335938 19.003906 L 17.730469 19.703125 L 17.480469 20.222656 C 17.320312 20.507812 17.070312 20.777344 16.925781 20.847656 C 16.765625 20.902344 15.347656 20.957031 13.773438 20.957031 L 10.925781 20.957031 L 10.925781 20.167969 C 10.925781 19.738281 10.765625 18.859375 10.566406 18.214844 C 10.296875 17.335938 10.246094 16.941406 10.386719 16.550781 C 10.566406 16.03125 10.585938 16.03125 12 16.03125 C 13.324219 16.03125 13.414062 16.046875 13.523438 16.441406 Z M 13.523438 16.441406 "/>
</g>
</svg>

